<svg xmlns="http://www.w3.org/2000/svg" viewBox="0 0 64 72" role="img" aria-label="CBP">
  <path fill="#1a4480" d="M32 2L4 14v22c0 16.5 12 31.9 28 36 16-4.1 28-19.5 28-36V14L32 2z"/>
  <path fill="#fff" d="M32 8l20 8.5v17.5c0 12.8-9.2 24.6-20 28.2-10.8-3.6-20-15.4-20-28.2V16.5L32 8z"/>
  <path fill="#1a4480" d="M32 14l14 6v14c0 8.5-6.2 16.4-14 18.8-7.8-2.4-14-10.3-14-18.8V20l14-6z"/>
  <path fill="#d83933" d="M32 22c-4 3-7 7-8 12h16c-1-5-4-9-8-12z"/>
  <path fill="#1a4480" d="M26 36h12l-2 8H28l-2-8z"/>
  <text x="32" y="58" text-anchor="middle" fill="#fff" font-family="Arial,sans-serif" font-size="7" font-weight="700">CBP</text>
</svg>
